<?xml version="1.0"?>
<!DOCTYPE svg PUBLIC "-//W3C//DTD SVG 1.1//EN"
         "http://www.w3.org/Graphics/SVG/1.1/DTD/svg11.dtd">

<svg xmlns="http://www.w3.org/2000/svg"
     xmlns:xlink="http://www.w3.org/1999/xlink"
     height="512">

<g>
  <path d="M512 455c0 32-25 57-57 57H57c-32 0-57-25-57-57V128c0-31 25-57 57-57h398c32 0 57 26 57 57z" fill="#e0e7ec"/>

  <path xmlns="http://www.w3.org/2000/svg" d="M484 0h-47c2 4 4 9 4 14a28 28 0 1 1-53-14H124c3 4 4 9 4 14A28 28 0 1 1 75 0H28C13 0 0 13 0 28v157h512V28c0-15-13-28-28-28z" fill="#dd2f45"/>

  <g fill="#f3aab9">
    <circle cx="470" cy="142" r="14"/>
    <circle cx="470" cy="100" r="14"/>
    <circle cx="427" cy="142" r="14"/>
    <circle cx="427" cy="100" r="14"/>
    <circle cx="384" cy="142" r="14"/>
    <circle cx="384" cy="100" r="14"/>
  </g>

</g>

</svg>